<svg width="16" height="14" viewBox="0 0 16 14" fill="none" xmlns="http://www.w3.org/2000/svg">
<path d="M0.96169 5.87698C1.02716 5.86635 1.09341 5.86145 1.1597 5.86231L12.4474 5.86231L12.2013 5.74783C11.9607 5.63396 11.7418 5.47898 11.5544 5.28991L8.3891 2.12456C7.97221 1.72661 7.90217 1.08642 8.2231 0.607716C8.59663 0.0976041 9.31294 -0.0131544 9.82309 0.36037C9.8643 0.390563 9.90348 0.423476 9.94029 0.458893L15.6642 6.18285C16.1116 6.62968 16.112 7.35451 15.6651 7.80184C15.6649 7.80212 15.6645 7.80244 15.6642 7.80273L9.94029 13.5267C9.4926 13.9731 8.76777 13.9721 8.3213 13.5244C8.28617 13.4892 8.25337 13.4517 8.2231 13.4122C7.90217 12.9335 7.97221 12.2933 8.3891 11.8954L11.5487 8.72429C11.7167 8.55615 11.9098 8.41516 12.1211 8.30644L12.4646 8.15189L1.2227 8.15189C0.637893 8.17361 0.124812 7.7651 0.0149476 7.19027C-0.0862593 6.56618 0.3376 5.97822 0.96169 5.87698Z" fill="#2194FF"/>
</svg>
